<?xml version="1.0" encoding="UTF-8"?>
<svg xmlns="http://www.w3.org/2000/svg" version="1.1" viewBox="0 0 250 250" width="250" height="250">
<rect width="250" height="250" fill="#ffffff"/>
<g transform="scale(6.578947368421052)">
<g transform="translate(2,2)">
<path fill="#000000" d="M0 0h7v1H0zM9 0h1v1H9zM11 0h2v1H11zM15 0h1v1H15zM18 0h1v1H18zM20 0h1v1H20zM22 0h2v1H22zM27 0h7v1H27zM0 1h1v1H0zM6 1h1v1H6zM8 1h1v1H8zM12 1h2v1H12zM16 1h3v1H16zM21 1h1v1H21zM24 1h1v1H24zM27 1h1v1H27zM33 1h1v1H33zM0 2h1v1H0zM2 2h3v1H2zM6 2h1v1H6zM8 2h2v1H8zM11 2h1v1H11zM14 2h1v1H14zM17 2h2v1H17zM20 2h3v1H20zM25 2h1v1H25zM27 2h1v1H27zM29 2h3v1H29zM33 2h1v1H33zM0 3h1v1H0zM2 3h3v1H2zM6 3h1v1H6zM9 3h2v1H9zM12 3h1v1H12zM14 3h1v1H14zM16 3h1v1H16zM19 3h4v1H19zM27 3h1v1H27zM29 3h3v1H29zM33 3h1v1H33zM0 4h1v1H0zM2 4h3v1H2zM6 4h1v1H6zM10 4h1v1H10zM13 4h3v1H13zM18 4h3v1H18zM22 4h2v1H22zM27 4h1v1H27zM29 4h3v1H29zM33 4h1v1H33zM0 5h1v1H0zM6 5h1v1H6zM8 5h1v1H8zM10 5h2v1H10zM15 5h1v1H15zM18 5h2v1H18zM21 5h1v1H21zM23 5h2v1H23zM27 5h1v1H27zM33 5h1v1H33zM0 6h7v1H0zM8 6h1v1H8zM10 6h1v1H10zM12 6h1v1H12zM14 6h1v1H14zM16 6h1v1H16zM18 6h1v1H18zM20 6h1v1H20zM22 6h1v1H22zM24 6h1v1H24zM26 6h1v1H26zM27 6h7v1H27zM9 7h2v1H9zM12 7h1v1H12zM14 7h2v1H14zM19 7h2v1H19zM22 7h3v1H22zM0 8h2v1H0zM3 8h2v1H3zM7 8h3v1H7zM12 8h1v1H12zM15 8h1v1H15zM18 8h1v1H18zM22 8h1v1H22zM25 8h2v1H25zM28 8h2v1H28zM31 8h2v1H31zM0 9h1v1H0zM2 9h1v1H2zM5 9h2v1H5zM11 9h2v1H11zM14 9h3v1H14zM20 9h1v1H20zM22 9h2v1H22zM26 9h1v1H26zM28 9h1v1H28zM30 9h1v1H30zM32 9h2v1H32zM0 10h2v1H0zM3 10h1v1H3zM6 10h3v1H6zM10 10h2v1H10zM13 10h2v1H13zM18 10h3v1H18zM23 10h2v1H23zM27 10h1v1H27zM29 10h1v1H29zM31 10h2v1H31zM1 11h3v1H1zM5 11h2v1H5zM9 11h2v1H9zM13 11h3v1H13zM17 11h2v1H17zM21 11h2v1H21zM24 11h2v1H24zM27 11h4v1H27zM32 11h1v1H32zM0 12h1v1H0zM2 12h1v1H2zM4 12h2v1H4zM7 12h1v1H7zM10 12h3v1H10zM16 12h2v1H16zM19 12h1v1H19zM21 12h3v1H21zM25 12h1v1H25zM28 12h3v1H28zM33 12h1v1H33zM0 13h1v1H0zM2 13h2v1H2zM7 13h1v1H7zM11 13h1v1H11zM13 13h4v1H13zM18 13h3v1H18zM22 13h1v1H22zM24 13h2v1H24zM27 13h1v1H27zM29 13h1v1H29zM32 13h1v1H32zM3 14h2v1H3zM7 14h2v1H7zM11 14h2v1H11zM15 14h4v1H15zM20 14h1v1H20zM22 14h3v1H22zM26 14h2v1H26zM29 14h3v1H29zM33 14h1v1H33zM0 15h1v1H0zM4 15h2v1H4zM7 15h1v1H7zM9 15h3v1H9zM13 15h1v1H13zM15 15h1v1H15zM17 15h2v1H17zM21 15h1v1H21zM23 15h1v1H23zM25 15h1v1H25zM27 15h2v1H27zM30 15h2v1H30zM33 15h1v1H33zM0 16h1v1H0zM2 16h1v1H2zM4 16h3v1H4zM9 16h3v1H9zM13 16h1v1H13zM17 16h1v1H17zM19 16h2v1H19zM22 16h4v1H22zM27 16h1v1H27zM29 16h2v1H29zM33 16h1v1H33zM0 17h2v1H0zM3 17h1v1H3zM5 17h1v1H5zM8 17h2v1H8zM11 17h3v1H11zM17 17h1v1H17zM19 17h2v1H19zM23 17h2v1H23zM26 17h4v1H26zM31 17h1v1H31zM33 17h1v1H33zM0 18h1v1H0zM3 18h3v1H3zM7 18h1v1H7zM11 18h2v1H11zM14 18h1v1H14zM16 18h2v1H16zM19 18h1v1H19zM21 18h1v1H21zM25 18h3v1H25zM29 18h2v1H29zM32 18h2v1H32zM0 19h2v1H0zM3 19h1v1H3zM5 19h2v1H5zM9 19h2v1H9zM12 19h1v1H12zM15 19h1v1H15zM17 19h3v1H17zM21 19h2v1H21zM24 19h1v1H24zM26 19h1v1H26zM28 19h1v1H28zM31 19h3v1H31zM0 20h1v1H0zM2 20h2v1H2zM5 20h1v1H5zM8 20h3v1H8zM14 20h4v1H14zM20 20h1v1H20zM22 20h1v1H22zM24 20h3v1H24zM28 20h3v1H28zM32 20h1v1H32zM1 21h1v1H1zM3 21h1v1H3zM5 21h2v1H5zM8 21h1v1H8zM10 21h1v1H10zM12 21h2v1H12zM17 21h2v1H17zM20 21h1v1H20zM25 21h3v1H25zM30 21h1v1H30zM32 21h2v1H32zM0 22h1v1H0zM4 22h4v1H4zM10 22h3v1H10zM14 22h2v1H14zM19 22h4v1H19zM26 22h1v1H26zM28 22h1v1H28zM30 22h1v1H30zM0 23h1v1H0zM2 23h1v1H2zM4 23h1v1H4zM6 23h2v1H6zM12 23h3v1H12zM16 23h1v1H16zM20 23h3v1H20zM25 23h3v1H25zM29 23h1v1H29zM32 23h1v1H32zM0 24h2v1H0zM3 24h1v1H3zM5 24h3v1H5zM11 24h2v1H11zM14 24h1v1H14zM16 24h1v1H16zM19 24h1v1H19zM22 24h1v1H22zM25 24h1v1H25zM28 24h1v1H28zM30 24h1v1H30zM32 24h2v1H32zM2 25h2v1H2zM5 25h2v1H5zM8 25h2v1H8zM13 25h1v1H13zM16 25h4v1H16zM21 25h1v1H21zM23 25h1v1H23zM25 25h2v1H25zM28 25h1v1H28zM30 25h1v1H30zM33 25h1v1H33zM8 26h3v1H8zM14 26h1v1H14zM17 26h2v1H17zM22 26h1v1H22zM24 26h1v1H24zM27 26h7v1H27zM0 27h7v1H0zM9 27h1v1H9zM11 27h2v1H11zM15 27h3v1H15zM19 27h1v1H19zM22 27h1v1H22zM24 27h2v1H24zM27 27h1v1H27zM33 27h1v1H33zM0 28h1v1H0zM6 28h1v1H6zM8 28h1v1H8zM11 28h2v1H11zM14 28h2v1H14zM18 28h1v1H18zM20 28h2v1H20zM23 28h3v1H23zM27 28h1v1H27zM29 28h3v1H29zM33 28h1v1H33zM0 29h1v1H0zM2 29h3v1H2zM6 29h1v1H6zM9 29h4v1H9zM14 29h1v1H14zM16 29h3v1H16zM22 29h4v1H22zM27 29h1v1H27zM29 29h3v1H29zM33 29h1v1H33zM0 30h1v1H0zM2 30h3v1H2zM6 30h1v1H6zM8 30h1v1H8zM10 30h3v1H10zM14 30h2v1H14zM17 30h1v1H17zM19 30h3v1H19zM23 30h2v1H23zM27 30h1v1H27zM29 30h1v1H29zM31 30h3v1H31zM0 31h1v1H0zM2 31h3v1H2zM6 31h1v1H6zM8 31h1v1H8zM11 31h3v1H11zM15 31h1v1H15zM18 31h1v1H18zM20 31h1v1H20zM22 31h1v1H22zM24 31h2v1H24zM27 31h1v1H27zM30 31h2v1H30zM0 32h1v1H0zM6 32h1v1H6zM10 32h2v1H10zM14 32h2v1H14zM17 32h1v1H17zM19 32h3v1H19zM24 32h1v1H24zM26 32h1v1H26zM29 32h1v1H29zM31 32h1v1H31zM33 32h1v1H33zM0 33h7v1H0zM9 33h2v1H9zM13 33h2v1H13zM16 33h1v1H16zM18 33h4v1H18zM23 33h2v1H23zM27 33h1v1H27zM29 33h1v1H29zM31 33h1v1H31z"/>
</g>
</g>
</svg>